<?xml version="1.0" encoding="utf-8"?>
<!-- Generator: Adobe Illustrator 24.1.2, SVG Export Plug-In . SVG Version: 6.00 Build 0)  -->
<svg version="1.1" id="Layer_1" xmlns="http://www.w3.org/2000/svg" xmlns:xlink="http://www.w3.org/1999/xlink" x="0px" y="0px"
	 viewBox="0 0 651.94 761.29" style="enable-background:new 0 0 651.94 761.29;" xml:space="preserve">
<style type="text/css">
	.st0{fill:#FFFFFF;stroke:#000000;stroke-width:80;stroke-miterlimit:10;}
	.st1{fill:#D1D3D4;stroke:#D1D3D4;stroke-width:12;stroke-miterlimit:10;}
	.st2{fill:#D1D3D4;stroke:#D1D3D4;stroke-width:2;stroke-miterlimit:10;}
	.st3{fill:#D1D3D4;stroke:#D1D3D4;stroke-miterlimit:10;}
	.st4{fill:#D1D3D4;stroke:#D1D3D4;stroke-width:7;stroke-miterlimit:10;}
	.st5{fill:none;stroke:#000000;stroke-width:50;stroke-miterlimit:10;}
</style>
<polygon class="st0" points="433.14,211.59 385.62,633.21 595.25,603.69 "/>
<polygon class="st0" points="217.59,282.03 67.8,525.21 311.35,551.81 "/>
<polygon class="st0" points="346.3,137.24 227.47,527.24 465.13,527.24 "/>
<line class="st1" x1="378.96" y1="391.71" x2="459.64" y2="359.2"/>
<path class="st0" d="M353.67,188.98c-20.25,351.28-53.77,528.69-100.54,532.26c-15.54,1.18-32.54-16.81-51-54"/>
<line class="st2" x1="0.66" y1="558.69" x2="207.21" y2="376.39"/>
<polygon class="st2" points="261.64,532.98 99.69,501.89 207.59,377.18 "/>
<polygon class="st2" points="4.61,557.63 264.63,610.28 203.53,382.09 "/>
<polygon class="st2" points="211.52,439.71 157.47,422.16 200.42,383.98 "/>
<rect x="188.94" y="385.54" transform="matrix(0.2877 0.9577 -0.9577 0.2877 716.7963 -174.572)" class="st3" width="573.63" height="18.12"/>
<rect x="388.76" y="169.73" transform="matrix(0.9962 0.0868 -0.0868 0.9962 25.7003 -33.5014)" class="st3" width="18.83" height="218.23"/>
<rect x="400.24" y="221.32" class="st4" width="27.4" height="88.51"/>
<rect x="397.68" y="311.88" class="st4" width="55.49" height="32.85"/>
<rect x="395.81" y="348.3" class="st4" width="60.6" height="12.26"/>
<rect x="393.77" y="363.62" class="st4" width="38.64" height="6.3"/>
<rect x="396.83" y="372.98" class="st4" width="12.6" height="4.6"/>
<rect x="428.32" y="276.13" class="st4" width="13.11" height="35.57"/>
<rect x="415.05" y="413.53" transform="matrix(0.9563 -0.2924 0.2924 0.9563 -139.3517 161.2472)" class="st3" width="109.43" height="266.57"/>
<line class="st5" x1="361.87" y1="415.39" x2="490.91" y2="375.14"/>
<rect x="357.89" y="481.23" transform="matrix(0.9929 0.1191 -0.1191 0.9929 72.4737 -43.3498)" class="st3" width="82.01" height="206.81"/>
<rect x="416.66" y="604.17" class="st3" width="49.02" height="75.83"/>
<rect x="357.58" y="536.43" transform="matrix(0.9861 0.1663 -0.1663 0.9861 100.8307 -55.542)" class="st3" width="49.02" height="75.83"/>
<rect x="344.87" y="568.98" transform="matrix(0.9727 0.2321 -0.2321 0.9727 156.9766 -67.4551)" class="st3" width="40.51" height="128.68"/>
</svg>
