<svg xmlns="http://www.w3.org/2000/svg" xmlns:xlink="http://www.w3.org/1999/xlink" version="1.1" x="0px" y="0px" viewBox="0 0 5 6.25" enable-background="new 0 0 5 5" xml:space="preserve"><polygon fill="#000000" points="0.651,3.262 1.237,1.99 1.349,1.746 1.526,1.973 1.937,2.506 1.651,2.523 2.286,1.489 2.466,1.201   2.597,1.515 3.312,3.192 3.001,3.168 3.396,2.576 3.556,2.337 3.683,2.572 4.349,3.8 3.399,2.779 3.688,2.771 3.296,3.361   3.114,3.63 2.989,3.332 2.274,1.651 2.585,1.672 1.948,2.705 1.817,2.919 1.659,2.721 1.251,2.188 1.534,2.175 "/><text x="0" y="20" fill="#000000" font-size="5px" font-weight="bold" font-family="'Helvetica Neue', Helvetica, Arial-Unicode, Arial, Sans-serif">Created by Alice Noir</text><text x="0" y="25" fill="#000000" font-size="5px" font-weight="bold" font-family="'Helvetica Neue', Helvetica, Arial-Unicode, Arial, Sans-serif">from the Noun Project</text></svg>